<?xml version="1.0" encoding="utf-8"?>
<!-- Generator: Adobe Illustrator 23.0.3, SVG Export Plug-In . SVG Version: 6.00 Build 0)  -->
<svg version="1.1" id="Layer_1" xmlns="http://www.w3.org/2000/svg" xmlns:xlink="http://www.w3.org/1999/xlink" x="0px" y="0px"
	 viewBox="0 0 1920 1080" style="enable-background:new 0 0 1920 1080;" xml:space="preserve">
<style type="text/css">
	.st0{fill:#FFFFFF;}
	.st1{fill:#CACACA;}
	.st2{fill:#B3B3B3;}
	.st3{fill:#999999;}
	.st4{fill:#9696E3;}
	.st5{fill:#7D7DCC;}
	.st6{fill:#AFCDFF;}
	.st7{fill:#7AA7FC;}
	.st8{fill:#9FC1FF;}
</style>
<g>
	<ellipse class="st6" cx="139.7" cy="461.6" rx="46" ry="47.2"/>
	<ellipse class="st6" cx="285.4" cy="461.6" rx="46" ry="47.2"/>
	<path class="st6" d="M195,557.6c-30.4-36-84-40.4-119.8-9.7l74.1,87.7c2.6,3.1,5.5,5.9,8.4,8.5l55.2-65.3L195,557.6z"/>
	<path class="st6" d="M350.6,547.9c-35.7-30.6-89.4-26.3-119.8,9.7l-17.9,21.2l55.2,65.3c3-2.6,5.8-5.4,8.4-8.5L350.6,547.9
		L350.6,547.9z"/>
	<path class="st7" d="M157.7,644.1c15.6,14,35.3,21.2,55.2,21.5c19.9-0.3,39.6-7.5,55.2-21.5l-55.2-65.3L157.7,644.1z"/>
</g>
<g>
	<path class="st8" d="M624.2,491.6c10.3,10.2,15.4,25.3,15.4,45.3v80.4h-25.3v-77.5c0-13.5-3.1-23.7-9.4-30.6
		c-6.2-6.9-15.2-10.3-26.7-10.3c-12.8,0-23,4-30.6,12c-7.6,8-11.3,19.5-11.3,34.4v71.9h-25.3v-77.5c0-13.5-3.1-23.7-9.4-30.6
		c-6.2-6.9-15.2-10.3-26.7-10.3c-12.8,0-23,4-30.6,12c-7.6,8-11.3,19.5-11.3,34.4v71.9h-25.3V477.7H432v20.8
		c5.1-7.2,11.8-12.7,20-16.5c8.3-3.8,17.7-5.7,28.2-5.7c10.9,0,20.6,2.2,29,6.6c8.4,4.4,14.9,10.8,19.5,19.2
		c5.3-8.1,12.6-14.4,22-19c9.4-4.6,20-6.9,31.8-6.9C600,476.4,614,481.5,624.2,491.6z"/>
	<path class="st8" d="M724.8,609.7c-11.1-6.1-19.7-14.6-26-25.4c-6.2-10.8-9.4-23.1-9.4-36.8c0-13.7,3.1-26,9.4-36.8
		c6.2-10.8,14.9-19.2,26-25.3s23.5-9.1,37.4-9.1c13.9,0,26.3,3,37.3,9.1c11,6.1,19.6,14.5,25.8,25.3c6.2,10.8,9.4,23.1,9.4,36.8
		c0,13.7-3.1,26-9.4,36.8c-6.2,10.8-14.8,19.3-25.8,25.4c-11,6.2-23.4,9.2-37.3,9.2C748.3,618.9,735.8,615.8,724.8,609.7z
		 M786.3,590.6c7.1-4.1,12.7-9.9,16.7-17.4c4-7.5,6.1-16,6.1-25.7c0-9.7-2-18.2-6.1-25.7c-4-7.5-9.6-13.2-16.7-17.3
		c-7.1-4-15.2-6.1-24.1-6.1c-9,0-17,2-24.1,6.1c-7.1,4-12.7,9.8-16.9,17.3c-4.1,7.5-6.2,16-6.2,25.7c0,9.7,2.1,18.2,6.2,25.7
		c4.1,7.5,9.7,13.3,16.9,17.4c7.1,4.1,15.2,6.2,24.1,6.2C771.1,596.8,779.2,594.7,786.3,590.6z"/>
	<path class="st8" d="M1101.4,491.6c10.3,10.2,15.4,25.3,15.4,45.3v80.4h-25.3v-77.5c0-13.5-3.1-23.7-9.4-30.6
		c-6.2-6.9-15.2-10.3-26.7-10.3c-12.8,0-23,4-30.6,12c-7.6,8-11.3,19.5-11.3,34.4v71.9h-25.3v-77.5c0-13.5-3.1-23.7-9.4-30.6
		c-6.2-6.9-15.2-10.3-26.7-10.3c-12.8,0-23,4-30.6,12c-7.6,8-11.3,19.5-11.3,34.4v71.9H885V477.7h24.2v20.8
		c5.1-7.2,11.8-12.7,20-16.5c8.3-3.8,17.7-5.7,28.2-5.7c10.9,0,20.6,2.2,29,6.6c8.4,4.4,14.9,10.8,19.5,19.2
		c5.3-8.1,12.6-14.4,22-19c9.4-4.6,20-6.9,31.8-6.9C1077.2,476.4,1091.1,481.5,1101.4,491.6z"/>
	<path class="st8" d="M1305.2,555.9h-113.3c1.6,12.3,7,22.2,16.2,29.6c9.2,7.5,20.7,11.2,34.4,11.2c16.7,0,30.1-5.6,40.3-16.9
		l14,16.3c-6.3,7.4-14.2,13-23.6,16.9c-9.4,3.9-19.9,5.8-31.5,5.8c-14.8,0-27.8-3-39.3-9.1c-11.4-6.1-20.2-14.5-26.5-25.4
		c-6.2-10.9-9.4-23.2-9.4-36.9c0-13.5,3-25.7,9.1-36.6c6.1-10.9,14.4-19.4,25-25.4c10.6-6.1,22.6-9.1,36-9.1c13.3,0,25.2,3,35.7,9.1
		c10.4,6.1,18.6,14.5,24.5,25.4c5.9,10.9,8.8,23.4,8.8,37.4C1305.8,550.2,1305.6,552.8,1305.2,555.9z M1206.3,508.8
		c-8.2,7.4-13,17-14.4,29h89.6c-1.4-11.8-6.2-21.4-14.4-28.9c-8.2-7.5-18.3-11.2-30.4-11.2S1214.5,501.4,1206.3,508.8z"/>
	<path class="st8" d="M1472.9,491.8c10.4,10.3,15.7,25.3,15.7,45.2v80.4h-25.3v-77.5c0-13.5-3.3-23.7-9.8-30.6
		c-6.5-6.9-15.8-10.3-27.9-10.3c-13.7,0-24.5,4-32.4,12c-7.9,8-11.9,19.5-11.9,34.4v71.9h-25.3V477.7h24.2v21.1
		c5.1-7.2,12-12.7,20.7-16.6c8.7-3.9,18.6-5.8,29.6-5.8C1448.4,476.4,1462.5,481.5,1472.9,491.8z"/>
	<path class="st8" d="M1629.3,609.2c-3.7,3.2-8.3,5.6-13.7,7.2c-5.4,1.7-11.1,2.5-16.9,2.5c-14.1,0-24.9-3.8-32.7-11.3
		c-7.7-7.6-11.6-18.4-11.6-32.4v-76.7h-23.7v-20.8h23.7v-30.6h25.3v30.6h40.1v20.8h-40.1v75.6c0,7.6,1.9,13.4,5.7,17.4
		c3.8,4,9.2,6.1,16.2,6.1c7.7,0,14.3-2.2,19.8-6.6L1629.3,609.2z"/>
	<path class="st8" d="M1805.3,477.7v139.6h-24v-21.1c-5.1,7.2-11.8,12.8-20.2,16.7c-8.3,4-17.4,5.9-27.3,5.9
		c-18.6,0-33.3-5.1-44-15.4c-10.7-10.3-16.1-25.4-16.1-45.5v-80.4h25.3v77.5c0,13.5,3.2,23.8,9.7,30.7c6.5,6.9,15.8,10.4,27.9,10.4
		c13.3,0,23.9-4,31.6-12.1c7.7-8.1,11.6-19.5,11.6-34.3v-72.2H1805.3z"/>
</g>
</svg>
